. 
 
http://www.torrenting.com          :     Once & For all ;)


               www . Torrenting . Com 

(((((((((((((= Enjoy No RAR releases =))))))))))))))))))))


...................................NFO:....................................

.[IMG]http://img94.imageshack.us/img94/89/gfdertyhbvc.png[/IMG]

[color=blue][size=5][b]The.Girl.with.the.Dragon.TaTToo.2012.CAM.AC3.SeT-CM8[/b][/size][/color]


[b]Source: INFERNO thank you very much guys

Bitrate  :            1964 Kbps
Video    :            720 x 336
Audio    :            English AC3
Sample   :            Yes, included[/b]
Duration :            2h 32mn


[url]http://www.imdb.com/title/tt1568346/[/url]



Complete name                    : The.Girl.with.the.Dragon.TaTToo.2012.Cam.AC3.Proper.SeT-CM8.avi
Format                           : AVI
Format/Info                      : Audio Video Interleave
Format profile                   : OpenDML
File size                        : 2.10 GiB
Duration                         : 2h 32mn
Overall bit rate                 : 1 964 Kbps
Writing application              : VirtualDubMod 1.5.10.2 (build 2542/release)
Writing library                  : VirtualDub build 30091/release

Video
ID                               : 0
Format                           : MPEG-4 Visual
Format profile                   : Advanced Simple@L5
Format settings, BVOP            : 2
Format settings, QPel            : No
Format settings, GMC             : No warppoints
Format settings, Matrix          : Default (H.263)
Muxing mode                      : Packed bitstream
Codec ID                         : XVID
Codec ID/Hint                    : XviD
Duration                         : 2h 32mn
Bit rate                         : 1 629 Kbps
Width                            : 720 pixels
Height                           : 336 pixels
Display aspect ratio             : 2.2:1
Frame rate                       : 29.970 fps
Color space                      : YUV
Chroma subsampling               : 4:2:0
Bit depth                        : 8 bits
Scan type                        : Progressive
Compression mode                 : Lossy
Bits/(Pixel*Frame)               : 0.225
Stream size                      : 1.74 GiB (83%)
Writing library                  : XviD 64

Audio
ID                               : 1
Format                           : AC-3
Format/Info                      : Audio Coding 3
Mode extension                   : CM (complete main)
Codec ID                         : 2000
Duration                         : 2h 32mn
Bit rate mode                    : Constant
Bit rate                         : 320 Kbps
Channel(s)                       : 2 channels
Channel positions                : Front: L R
Sampling rate                    : 48.0 KHz
Bit depth                        : 16 bits
Compression mode                 : Lossy
Stream size                      : 350 MiB (16%)
Alignment                        : Aligned on interleaves
Interleave, duration             : 33 ms (1.00 video frame)
Interleave, preload duration     : 512 ms


Cast

Daniel Craig 	                ... 	Mikael Blomkvist
Rooney Mara 	                ... 	Lisbeth Salander
Christopher Plummer        	... 	Henrik Vanger
Stellan Skarsgrd 	        ... 	Martin Vanger
Steven Berkoff          	... 	Frode
Robin Wright 	                ... 	Erika Berger 



Storyline

This English-language adaptation of the Swedish novel by Stieg Larsson follows a disgraced journalist, 
Mikael Blomkvist (Daniel Craig), as he investigates the disappearance of a wealthy patriarch's niece 
from 40 years ago. He is aided by the pierced, tattooed, punk computer hacker named Lisbeth Salander 
(Rooney Mara). As they work together in the investigation, Blomkvist and Salander uncover immense 
corruption beyond anything they have ever imagined.


[img]http://img249.imageshack.us/img249/5109/azxsdcvf.png[/img]
[img]http://img819.imageshack.us/img819/5813/dsazxcvbnhg.png[/img]
[img]http://img202.imageshack.us/img202/4029/edsazxcvf.png[/img]
[img]http://img33.imageshack.us/img33/4392/fghjklo.png[/img]
[img]http://img12.imageshack.us/img12/4741/mkjhgbn.png[/img]
[img]http://img828.imageshack.us/img828/6394/oikjhnbvc.png[/img]
[img]http://img10.imageshack.us/img10/6497/oiujkmnb.png[/img]
[img]http://img534.imageshack.us/img534/4961/rfdcvbnjmhg.png[/img]
[img]http://img337.imageshack.us/img337/3645/tgfdsazxcvb.png[/img]
[img]http://img249.imageshack.us/img249/7310/wedsaqwsx.png[/img]
[img]http://img28.imageshack.us/img28/3223/yhgfdcvbnmk.png[/img]




Notes:

First of, My apologies to CM8 and to everyone who waisted there bandwith on the last file, i really messed up and dropped the ball
on it, So Please except my deapest apologies,i'm sure your going to love the way this one looks ;)
In Future im going to ask "WWHD" (What would Hive do) :lol: . thanks for the Help Mr Hive ;), 
First of,i rotated  cropped and resized adjusted the AR ,used some super duper filters and then coverted audio to AC3 and muxed back.
yes i cropped alittle of the chair in corner but anymore, we would of lost to much screen and removed most of the flicker ;)
Audio is very nice. Once again,thank you very much to INFERNO for suppling us with the files


Greetz:

big shout out to all @ CM8 Mr Hive , Sir Unevano, Super TED, Mr Pinny and Mr Simmo.
Greets to INFERNO,jtr,COPYxRIGHT,SAiNTS,DTRG,SANTi,BDK, ViSiON, THC,SAFC,3LTON, AMIABLE and mSD
all the other Legends out there Past and Present..




LOOKING FOR ANYTHING YOU WANT TO LOOK AND SOUND BETTER

CM8@hushmail.com